# xmcd CD database file
#
# Track frame offsets:
#	150
#	14208
#	26177
#	39375
#	52396
#	63148
#	76309
#	90460
#	104415
#	117765
#	132765
#	145590
#	159990
#	172760
#	185867
#	199669
#	212568
#	225528
#	240223
#	253785
#
# Disc length: 3569 seconds
#
# Revision: 1
# Processed by: cddbd v1.5.2PL0 Copyright (c) Steve Scherf et al.
# Submitted via: CDex 1.90
#
DISCID=0a0def14
DTITLE=Various Artist - History Of Blues Guitar
DYEAR=2016
DGENRE=Blues
TTITLE0=Cliff Carlisle - Mouse Ear Blues
TTITLE1=Robert Johnson - Crossroad Blues
TTITLE2=Tampa Red - Denver Blues
TTITLE3=T Bone Burnette - Mean Old World
TTITLE4=Lightnin' Hopkins - Short Haired Woman
TTITLE5=Big Bill Broonzy - Saturday Night Rub
TTITLE6=Blind Willie McTell - Atlanta Strut
TTITLE7=Robert Wilkins - I'll Go With Her Blues
TTITLE8=Charlie Patton - Down The Road Blues
TTITLE9=Blind Willie Johnson - Dark Was The Night
TTITLE10=Lonnie Johnson - Away Down The Alley Blues
TTITLE11=Joe Calicott - Fare Thee Well Blues
TTITLE12=Skip James - I'm So Glad
TTITLE13=Leadbelly - Packin' Trunk
TTITLE14=Scrapper Blackwell - A Blues
TTITLE15=Blind Lemon Jefferson - Black Snake Moon
TTITLE16=Blind Blake - Southern Rag
TTITLE17=William Moore - One Way Gal
TTITLE18=B.B. King - Three O'Clock Blues
TTITLE19=John Lee Hooker - I'm In The Mood
EXTD=YEAR: 2016
EXTT0=
EXTT1=
EXTT2=
EXTT3=
EXTT4=
EXTT5=
EXTT6=
EXTT7=
EXTT8=
EXTT9=
EXTT10=
EXTT11=
EXTT12=
EXTT13=
EXTT14=
EXTT15=
EXTT16=
EXTT17=
EXTT18=
EXTT19=
PLAYORDER=
